# xmcd
# Track frame offsets:
# 150
# 18631
# 37286
# 50158
#
# Disc length: 971 seconds
# Revision: 0
# Processed by: cddbd v1.5.2PL0 Copyright (c) Steve Scherf et al.
# Submitted via: VisiTrax 2.11.0.264 - For more info visit www.synapsa.com
#
DISCID=3803c904
DTITLE=Luke O'Shea and Medicine Wheel - Wild Colonial Boys
DYEAR=2008
DGENRE=
TTITLE0=Wild colonial boys
TTITLE1=Telephone lines
TTITLE2=Wild pony
TTITLE3=Will heaven understand?
EXTD=
EXTT0=
EXTT1=
EXTT2=
EXTT3=
PLAYORDER=
